<svg xmlns="http://www.w3.org/2000/svg" width="1200" height="1900" viewBox="0 0 1200 1900">
  <defs>
    <linearGradient id="bg" x1="0" y1="0" x2="1" y2="1">
      <stop offset="0" stop-color="#f7fafc"/>
      <stop offset="1" stop-color="#edf4f2"/>
    </linearGradient>
    <linearGradient id="hero" x1="0" y1="0" x2="1" y2="0">
      <stop offset="0" stop-color="#101820"/>
      <stop offset="1" stop-color="#24515c"/>
    </linearGradient>
    <style>
      .font { font-family: "Microsoft YaHei", "Noto Sans CJK SC", Arial, sans-serif; }
      .title { font-size: 54px; font-weight: 800; fill: #ffffff; }
      .sub { font-size: 24px; fill: #d8e7ec; }
      .label { font-size: 22px; fill: #647887; }
      .value { font-size: 42px; font-weight: 800; fill: #14232c; }
      .small { font-size: 22px; fill: #5e707b; }
      .tiny { font-size: 19px; fill: #71828c; }
      .card-title { font-size: 30px; font-weight: 800; fill: #152832; }
      .price { font-size: 34px; font-weight: 800; fill: #0f7b6c; }
      .pill { font-size: 20px; font-weight: 700; fill: #ffffff; }
    </style>
  </defs>
  <rect width="1200" height="1600" fill="url(#bg)"/>
  <rect y="1600" width="1200" height="300" fill="url(#bg)"/>
  <rect x="44" y="44" width="1112" height="226" rx="28" fill="url(#hero)"/>
  <text x="82" y="120" class="font title">CAMEL Mall 竞品情报日报</text>
  <text x="84" y="168" class="font sub">FastMoss 数据源 · TikTok Shop Thailand · 2026-07-03</text>
  <text x="84" y="216" class="font sub">口径：售价 / 昨日销量 / 近7天销量GMV / 总销量 / 达人出单率</text>

  <rect x="78" y="300" width="320" height="150" rx="22" fill="#ffffff"/>
  <text x="110" y="352" class="font label">监控商品</text>
  <text x="110" y="410" class="font value">4</text>
  <text x="170" y="410" class="font small">个核心 SKU</text>

  <rect x="440" y="300" width="320" height="150" rx="22" fill="#ffffff"/>
  <text x="472" y="352" class="font label">近7天总销量</text>
  <text x="472" y="410" class="font value">5,421</text>
  <text x="472" y="438" class="font small">四品合计</text>

  <rect x="802" y="300" width="320" height="150" rx="22" fill="#ffffff"/>
  <text x="834" y="352" class="font label">昨日总销量</text>
  <text x="834" y="410" class="font value">921</text>
  <text x="834" y="438" class="font small">四品合计</text>


  <g transform="translate(78 500)">
    <rect width="1044" height="214" rx="24" fill="#ffffff"/>
    <rect x="28" y="30" width="8" height="154" rx="4" fill="#0f7b6c"/>
    <text x="58" y="66" class="font card-title">1. 豆浆机 / 多功能破壁机</text>
    <text x="58" y="102" class="font tiny">CAMEL เครื่องปั่นอเนกประสงค์ เครื่องปั่นน้ำ...</text>
    <text x="58" y="154" class="font price">฿740.44  - 910.17</text>
    <text x="250" y="142" class="font small">近7天销量：1.2k｜昨日销量：189｜近7天GMV：฿895.1k</text>
    <text x="250" y="178" class="font small">总销量：113.7k｜评分：4.8｜佣金：7%｜达人出单率：40.15%</text>
    <rect x="810" y="42" width="178" height="38" rx="19" fill="#0f7b6c"/>
    <text x="838" y="68" class="font pill">CAMEL Mall</text>
  </g>
  <g transform="translate(78 738)">
    <rect width="1044" height="214" rx="24" fill="#ffffff"/>
    <rect x="28" y="30" width="8" height="154" rx="4" fill="#20639b"/>
    <text x="58" y="66" class="font card-title">2. 煮蛋器</text>
    <text x="58" y="102" class="font tiny">CAMEL เครื่องต้มไข่ไฟฟ้าสแตนเลสพลาสติก ต้มไ...</text>
    <text x="58" y="154" class="font price">฿381.27</text>
    <text x="250" y="142" class="font small">近7天销量：748｜昨日销量：111｜近7天GMV：฿285.1k</text>
    <text x="250" y="178" class="font small">总销量：136.8k｜评分：4.8｜佣金：7%｜达人出单率：48.45%</text>
    <rect x="810" y="42" width="178" height="38" rx="19" fill="#20639b"/>
    <text x="838" y="68" class="font pill">CAMEL Mall</text>
  </g>
  <g transform="translate(78 976)">
    <rect width="1044" height="214" rx="24" fill="#ffffff"/>
    <rect x="28" y="30" width="8" height="154" rx="4" fill="#7851a9"/>
    <text x="58" y="66" class="font card-title">3. 手持挂烫机</text>
    <text x="58" y="102" class="font tiny">CAMEL เตารีดไอน้ำแบบมือถือ พับเก็บได้ ใช้ได...</text>
    <text x="58" y="154" class="font price">฿508.37  - 584.25</text>
    <text x="250" y="142" class="font small">近7天销量：1.6k｜昨日销量：341｜近7天GMV：฿822.0k</text>
    <text x="250" y="178" class="font small">总销量：36.5k｜评分：4.8｜佣金：7%｜达人出单率：63.79%</text>
    <rect x="810" y="42" width="178" height="38" rx="19" fill="#7851a9"/>
    <text x="838" y="68" class="font pill">CAMEL Mall</text>
  </g>
  <g transform="translate(78 1214)">
    <rect width="1044" height="214" rx="24" fill="#ffffff"/>
    <rect x="28" y="30" width="8" height="154" rx="4" fill="#d97904"/>
    <text x="58" y="66" class="font card-title">4. 电煮锅 / 多功能电锅</text>
    <text x="58" y="102" class="font tiny">CAMEL หม้อไฟฟ้า ชั้นนึ่ง/ไม่มีเครื่องนึ่ง ห...</text>
    <text x="58" y="154" class="font price">฿316.62  - 499.50</text>
    <text x="250" y="142" class="font small">近7天销量：1.8k｜昨日销量：280｜近7天GMV：฿584.8k</text>
    <text x="250" y="178" class="font small">总销量：151.5k｜评分：4.8｜佣金：7%｜达人出单率：52.48%</text>
    <rect x="810" y="42" width="178" height="38" rx="19" fill="#d97904"/>
    <text x="838" y="68" class="font pill">CAMEL Mall</text>
  </g>

  <rect x="78" y="1450" width="1044" height="96" rx="22" fill="#17242d"/>
  <text x="112" y="1494" class="font sub">今日判断：近7天销量最高为 电煮锅 / 多功能电锅，近7天销量 1.8k。</text>
  <text x="112" y="1532" class="font sub">后续重点：价格变化、近7天增量、达人出单率、直播/视频带货规模。</text>

  <rect x="78" y="1588" width="1044" height="240" rx="24" fill="#ffffff"/>
  <text x="110" y="1640" class="font card-title">多源数据雷达</text>
  
    <rect x="110" y="1668" width="220" height="56" rx="18" fill="#0f7b6c"/>
    <text x="130" y="1702" class="font pill">FastMoss 主数据 · 已接入</text>
  
    <rect x="350" y="1668" width="220" height="56" rx="18" fill="#7b8794"/>
    <text x="370" y="1702" class="font pill">EchoTik 校验 · 待接入</text>
  
    <rect x="590" y="1668" width="220" height="56" rx="18" fill="#20639b"/>
    <text x="610" y="1702" class="font pill">素材动向 · 已加入</text>
  
    <rect x="830" y="1668" width="220" height="56" rx="18" fill="#d97904"/>
    <text x="850" y="1702" class="font pill">自家店铺 · 待接入</text>
  <text x="110" y="1766" class="font small">Creative Center 关键词：CAMEL blender / egg cooker / steam iron / electric pot</text>
  <text x="110" y="1804" class="font small">我方表现：可接 TikTok Seller Center 导出表，展示我方销量/GMV/转化与竞品对比</text>
  <text x="110" y="1842" class="font tiny">说明：EchoTik 免费版/导出表接入后，将显示 FastMoss vs EchoTik 销量差异；Seller Center 导出接入后，将显示我方与竞品差距。</text>
</svg>
